<mxfile host="65bd71144e">
    <diagram id="s-FveJvm3fEU95_QQxcw" name="Page-1">
        <mxGraphModel dx="1327" dy="1079" grid="0" gridSize="17" guides="1" tooltips="1" connect="1" arrows="1" fold="1" page="0" pageScale="1" pageWidth="850" pageHeight="1100" math="0" shadow="0">
            <root>
                <mxCell id="0"/>
                <mxCell id="1" parent="0"/>
            </root>
        </mxGraphModel>
    </diagram>
</mxfile>